<svg xmlns="http://www.w3.org/2000/svg" version="1.1" xmlns:xlink="http://www.w3.org/1999/xlink" xmlns:svgjs="http://svgjs.dev/svgjs" viewBox="0 0 12.911039021497452 3.2700509697800673"><g transform="matrix(0.7080369329021795,0,0,0.7080369329021795,4.395440636797499,1.0361644510554715)"><rect width="14.259463187437245" height="14.259463187437245" x="-4.220167447810091" y="-6.283926797378571" fill="#ffffff"></rect><g clip-path="url(#SvgjsClipPath31259)"><g clip-path="url(#SvgjsClipPath312540d8dd099-5523-4d97-8b30-730c6f965edf)"><path d=" M -1.8067984389484866 1.6534929930353355 C -1.8067984389484866 1.7380617163779017 -1.8753549208307723 1.8066181982601877 -1.959923644173339 1.8066181982601877 C -2.0444923675159057 1.8066181982601877 -2.113048849398191 1.7380617163779017 -2.113048849398191 1.6534929930353355 C -2.113048849398191 1.568924269692769 -2.0444923675159057 1.5003677878104833 -1.959923644173339 1.5003677878104833 C -1.8753549208307723 1.5003677878104833 -1.8067984389484866 1.568924269692769 -1.8067984389484866 1.6534929930353355 Z" fill="#382d5e" transform="matrix(1,0,0,1,0,0)" fill-rule="nonzero"></path></g><g clip-path="url(#SvgjsClipPath312540d8dd099-5523-4d97-8b30-730c6f965edf)"><path d=" M -0.915143437330521 1.6534929930353355 C -0.915143437330521 1.7380617163779017 -0.9836999192128062 1.8066181982601877 -1.068268642555373 1.8066181982601877 C -1.1528373658979394 1.8066181982601877 -1.221393847780225 1.7380617163779017 -1.221393847780225 1.6534929930353355 C -1.221393847780225 1.568924269692769 -1.1528373658979394 1.5003677878104833 -1.068268642555373 1.5003677878104833 C -0.9836999192128062 1.5003677878104833 -0.915143437330521 1.568924269692769 -0.915143437330521 1.6534929930353355 Z" fill="#382d5e" transform="matrix(1,0,0,1,0,0)" fill-rule="nonzero"></path></g><g clip-path="url(#SvgjsClipPath312540d8dd099-5523-4d97-8b30-730c6f965edf)"><path d=" M -2.0861101558864115 0.6134388727735307 L -1.9852869754914475 0.8681749394901828 L -0.8820608312634233 1.3499206983148722 L -0.7810801146490913 1.0948695591594857 Z" fill="#382d5e" transform="matrix(1,0,0,1,0,0)" fill-rule="nonzero"></path></g><g clip-path="url(#SvgjsClipPath312540d8dd099-5523-4d97-8b30-730c6f965edf)"><path d=" M -2.276728981320641 0.13200818638757597 L -2.1757482647063098 0.3867442531042281 L -0.6914420058291939 0.8681749394901828 L -0.5906188254342295 0.6134388727735307 Z" fill="#382d5e" transform="matrix(1,0,0,1,0,0)" fill-rule="nonzero"></path></g><g clip-path="url(#SvgjsClipPath312540d8dd099-5523-4d97-8b30-730c6f965edf)"><path d=" M -0.3999999999999999 0.13200818638757597 L -0.5008231803949643 0.3867442531042281 L -2.1757482647063098 0.3867442531042281 L -2.276728981320641 0.13200818638757597 Z" fill="#c84449" transform="matrix(1,0,0,1,0,0)" fill-rule="nonzero"></path></g><g clip-path="url(#SvgjsClipPath312540d8dd099-5523-4d97-8b30-730c6f965edf)"><path d=" M -0.5906188254342295 0.6134388727735307 L -0.6914420058291939 0.8681749394901828 L -1.9852869754914475 0.8681749394901828 L -2.0861101558864115 0.6134388727735307 Z" fill="#efe0e2" transform="matrix(1,0,0,1,0,0)" fill-rule="nonzero"></path></g><g clip-path="url(#SvgjsClipPath312540d8dd099-5523-4d97-8b30-730c6f965edf)"><path d=" M -2.0279792909399403 1.0948695591594857 L -2.4060662174210563 0.13988499735593246 L -2.5068893978160207 -0.11500860558008674 L -2.78100241951483 -0.11500860558008674 L -2.871743281870298 -0.11500860558008674 L -2.871743281870298 0.13988499735593246 L -2.6800217029004987 0.13988499735593246 L -2.200954059805051 1.3499206983148722 L -0.8820608312634233 1.3499206983148722 L -0.7810801146490913 1.0948695591594857 Z" fill="#e37f7c" transform="matrix(1,0,0,1,0,0)" fill-rule="nonzero"></path></g></g><g><path d=" M 0.7798200249943729 1.7036068238338609 Q 0.515880939611662 1.6916095926801014 0.3911097356125624 1.6916095926801014 Q 0.35031914968977984 1.6916095926801014 0.28313465522872616 1.6964084851416052 Q 0.23034683815218399 1.7036068238338609 0.13916788138361116 1.7036068238338609 Q 0.06958394069180558 1.7036068238338609 0.06958394069180558 1.672414022834086 Q 0.06958394069180558 1.6532184529880707 0.08398061807631708 1.6484195605265668 Q 0.09837729546082859 1.6436206680650631 0.14876566630661883 1.6340228831420553 Q 0.23994462307519165 1.617226759526792 0.27473659342109447 1.5788356198347613 Q 0.3095285637669972 1.5404444801427306 0.3095285637669972 1.4540644158356617 L 0.3095285637669972 0.3743136119972992 Q 0.3095285637669972 0.290332993920982 0.27473659342109447 0.2531415773443273 Q 0.23994462307519165 0.2159501607676726 0.14876566630661883 0.1991540371524092 Q 0.10317618792233242 0.19195569846015337 0.086380064307069 0.18355763665252178 Q 0.06958394069180558 0.17515957484488998 0.06958394069180558 0.15596400499887464 Q 0.06958394069180558 0.1247712039990998 0.13916788138361116 0.1247712039990998 L 0.27593631653647044 0.12717065022985174 Q 0.31192800999774917 0.1295700964606037 0.4055064129970739 0.1295700964606037 Q 0.5038837084579025 0.1295700964606037 0.6526493747645213 0.11757286530684397 Q 0.7030377456103116 0.11517341907609202 0.7450280546484701 0.1127739728453403 Q 0.7870183636866287 0.11037452661458835 0.8158117184556517 0.11037452661458835 Q 1.1277397284534008 0.11037452661458835 1.3316926580673139 0.20995154519079273 Q 1.5356455876812267 0.30952856376699733 1.6304237137959274 0.4810889692657594 Q 1.7252018399106281 0.6526493747645215 1.7252018399106281 0.8709989817629459 Q 1.7252018399106281 1.096546927453626 1.612427867065288 1.2897023490291553 Q 1.499653894219948 1.4828577706046846 1.3076981957597946 1.5956317434500247 Q 1.1157424972996413 1.7084057162953648 0.8901945516089611 1.7084057162953648 L 0.7798200249943729 1.7036068238338609 M 1.1913250535683266 1.5332461414504748 Q 1.3364915505288175 1.442067184681902 1.4168729992590068 1.2801045641061477 Q 1.497254447989196 1.1181419435303934 1.497254447989196 0.9117895676857285 Q 1.497254447989196 0.6910405144565521 1.4012765987591194 0.5254787245346699 Q 1.3052987495290427 0.3599169346127875 1.150534467645544 0.27233714719034263 Q 0.9957701857620455 0.18475735976789776 0.8278089496094112 0.18475735976789776 Q 0.7006382993795597 0.18475735976789776 0.6370529742646339 0.19195569846015337 Q 0.573467649149708 0.1991540371524092 0.5374759556884293 0.23034683815218404 Q 0.5014842622271506 0.2615396391519591 0.5014842622271506 0.3311235798437646 L 0.5014842622271506 1.4012765987591194 Q 0.5014842622271506 1.5332461414504748 0.5986618345726032 1.5788356198347613 Q 0.6958394069180558 1.6244250982190478 0.8614011968399381 1.6244250982190478 Q 1.0461585566078357 1.6244250982190478 1.1913250535683266 1.5332461414504748 M 2.095984235628881 1.6628162379110785 Q 1.9964072170526763 1.5980311896807766 1.9412199537453823 1.4792586012585567 Q 1.8860326904380882 1.3604860128363367 1.8860326904380882 1.2045220078374623 Q 1.8860326904380882 1.070153018915355 1.949618015553014 0.952580153608511 Q 2.01320334066794 0.8350072883016671 2.118778974821024 0.7666230707252375 Q 2.2243546089741084 0.6982388531488078 2.349125812973208 0.6982388531488078 Q 2.493092586818323 0.6982388531488078 2.585471266702272 0.7834191943405009 Q 2.6778499465862207 0.8685995355321939 2.6778499465862207 1.0005690782235495 Q 2.6778499465862207 1.0749519113768589 2.605866559663663 1.0749519113768589 L 2.099583404975009 1.0749519113768589 Q 2.065991157744482 1.0749519113768589 2.0527942034753464 1.0929477581074982 Q 2.039597249206211 1.1109436048381376 2.039597249206211 1.1637314219146797 Q 2.039597249206211 1.2765053947600198 2.088785896936625 1.3724832439900965 Q 2.1379745446670393 1.4684610932201732 2.2231548858587327 1.5248480796428432 Q 2.3083352270504256 1.5812350660655132 2.409111968742006 1.5812350660655132 Q 2.5506792963563694 1.5812350660655132 2.644257699355694 1.4732599856816768 Q 2.6586543767402055 1.4540644158356617 2.670651607893965 1.4540644158356617 Q 2.6898471777399804 1.4540644158356617 2.6898471777399804 1.4780588781431807 Q 2.6898471777399804 1.5236483565274672 2.646657145586446 1.5788356198347613 Q 2.5938693285099035 1.6484195605265668 2.507489264202835 1.6880104233339734 Q 2.4211091998957657 1.72760128614138 2.325131350665689 1.72760128614138 Q 2.1955612542050855 1.72760128614138 2.095984235628881 1.6628162379110785 M 2.322731904434937 1.0005690782235495 Q 2.435505877280277 1.0005690782235495 2.500290925510579 0.9885718470697897 Q 2.519486495356594 0.9861724008390379 2.519486495356594 0.9357840299932476 Q 2.519486495356594 0.866200089301442 2.45830061647242 0.8170114415710278 Q 2.3971147375882467 0.7678227938406135 2.3131341195119295 0.7678227938406135 Q 2.260346302435387 0.7678227938406135 2.203959316012717 0.8002153179557643 Q 2.147572329590047 0.8326078420709152 2.1115806361287683 0.8805967666859535 Q 2.0755889426674896 0.9285856913009919 2.0755889426674896 0.9765746159160302 Q 2.0755889426674896 1.0005690782235495 2.1043822974365125 1.0005690782235495 L 2.322731904434937 1.0005690782235495 M 2.949022518799333 1.6928093157954773 Q 2.9034330404150466 1.6604167916803265 2.8734399625306475 1.611228143949912 Q 2.843446884646249 1.562039496219498 2.843446884646249 1.5188494640659633 Q 2.843446884646249 1.444466630912654 2.8830377474536553 1.4012765987591194 Q 2.922628610261062 1.358086566605585 3.0138075670296347 1.3196954269135543 L 3.2585510825663304 1.2189186852219738 Q 3.304140560950617 1.1997231153759584 3.3137383458736243 1.185326437991447 Q 3.323336130796632 1.1709297606069353 3.325735577027384 1.122940835991897 L 3.330534469488888 0.9693762772237744 Q 3.33293391571964 0.9045912289934727 3.294542776027609 0.8602014737245622 Q 3.2561516363355785 0.8158117184556518 3.1889671418745245 0.8158117184556518 Q 3.1529754484132457 0.8158117184556518 3.116983754951967 0.8278089496094113 Q 3.0809920614906883 0.8398061807631709 3.0569975991831693 0.8590017506091863 Q 3.0330031368756503 0.8757978742244497 3.0330031368756503 0.9285856913009919 L 3.035402583106402 0.9717757234545263 Q 3.035402583106402 0.9909712933005417 2.9742167042222283 1.0233638174156927 Q 2.9130308253380544 1.0557563415308433 2.8770391318767756 1.0557563415308433 Q 2.865041900723016 1.0557563415308433 2.85784356203076 1.0497577259539637 Q 2.8506452233385042 1.043759110377084 2.8506452233385042 1.0341613254540762 Q 2.8506452233385042 0.9957701857620456 2.8758394087613994 0.951380430493135 Q 2.9010335941842946 0.9069906752242246 2.946623072568581 0.8685995355321939 Q 3.0282042444141464 0.7942167023788845 3.130180709221103 0.7462277777638462 Q 3.232157174028059 0.6982388531488078 3.304140560950617 0.6982388531488078 Q 3.3905206252576856 0.6982388531488078 3.4469076116803556 0.7594247320329818 Q 3.5032945981030257 0.8206106109171556 3.5008951518722737 0.9117895676857285 L 3.4888979207185145 1.4876566630661885 Q 3.4864984744877625 1.5380450339119787 3.5104929367952815 1.5692378349117537 Q 3.5344873991028005 1.6004306359115286 3.575277985025583 1.6004306359115286 Q 3.6352641407943813 1.6004306359115286 3.664057495563404 1.5740367273732574 Q 3.6760547267171635 1.562039496219498 3.6832530654094198 1.562039496219498 Q 3.695250296563179 1.562039496219498 3.702448635255435 1.5692378349117537 Q 3.7096469739476907 1.5764361736040093 3.7096469739476907 1.5884334047577688 Q 3.7096469739476907 1.5980311896807766 3.702448635255435 1.613627590180664 Q 3.695250296563179 1.6292239906805515 3.6832530654094198 1.6412212218343112 Q 3.6448619257173887 1.6796123615263419 3.6004721704484783 1.702407100718485 Q 3.556082415179568 1.7252018399106281 3.5176912754875374 1.7252018399106281 Q 3.407316748872949 1.7252018399106281 3.342531700642647 1.6004306359115286 L 3.3353333619503918 1.6004306359115286 Q 3.2561516363355785 1.6652156841418302 3.184168249413021 1.6952087620262293 Q 3.112184862490463 1.7252018399106281 3.035402583106402 1.7252018399106281 Q 2.9946119971836196 1.7252018399106281 2.949022518799333 1.6928093157954773 M 3.2897438835661053 1.5524417112964901 Q 3.304140560950617 1.5380450339119787 3.3113388996428723 1.5164500178352114 Q 3.318537238335128 1.494855001758444 3.32093668456588 1.4540644158356617 L 3.325735577027384 1.3364915505288177 L 3.325735577027384 1.322094873144306 Q 3.325735577027384 1.302899303298291 3.32093668456588 1.2945012414906591 Q 3.316137792104376 1.2861031796830273 3.304140560950617 1.2861031796830273 Q 3.2897438835661053 1.2861031796830273 3.2561516363355785 1.298100410836787 Q 3.1361793247979826 1.3412904429903216 3.08339150772144 1.3892793676053599 Q 3.0306036906448983 1.437268292220398 3.0306036906448983 1.4828577706046846 Q 3.0306036906448983 1.5428439263734826 3.065395660990801 1.5764361736040093 Q 3.100187631336704 1.6100284208345361 3.1481765559517423 1.6100284208345361 Q 3.232157174028059 1.6100284208345361 3.2897438835661053 1.5524417112964901 M 3.7624031576999015 1.67721291529559 Q 3.7624031576999015 1.6604167916803265 3.775600111969037 1.6520187298726947 Q 3.7887970662381725 1.6436206680650631 3.8175904210071954 1.6340228831420553 Q 3.8703782380837377 1.617226759526792 3.895572423506633 1.6016303590269045 Q 3.920766608929528 1.5860339585270171 3.920766608929528 1.5428439263734826 L 3.920766608929528 0.33352302607451656 Q 3.920766608929528 0.1823579135371458 3.81039208231494 0.15836345122962658 Q 3.800794297391932 0.15596400499887464 3.7959954049304283 0.14756594319124305 Q 3.7911965124689244 0.13916788138361125 3.7911965124689244 0.12717065022985174 Q 3.7911965124689244 0.10317618792233252 3.807992636084188 0.09837729546082863 Q 3.9015710390835125 0.07678227938406135 4.0215433506211085 0.02639390853827117 L 4.079130060159154 0.00479889246150389 Q 4.088727845082162 2.220446049250313e-16 4.093526737543666 2.220446049250313e-16 Q 4.09832563000517 2.220446049250313e-16 4.1019247993512975 0.005998615576879862 Q 4.105523968697425 0.011997231153759724 4.105523968697425 0.016796123615263614 Q 4.105523968697425 0.03119280099977506 4.097125906889794 0.10797508038383641 Q 4.088727845082162 0.18475735976789776 4.088727845082162 0.3431208109975241 L 4.088727845082162 1.5428439263734826 Q 4.088727845082162 1.5860339585270171 4.113922030505057 1.6016303590269045 Q 4.139116215927952 1.617226759526792 4.191904033004494 1.6340228831420553 Q 4.220697387773518 1.6436206680650631 4.233894342042653 1.6520187298726947 Q 4.247091296311789 1.6604167916803265 4.247091296311789 1.67721291529559 Q 4.247091296311789 1.6988079313723572 4.199102371696751 1.6988079313723572 Q 4.1367167696972 1.6988079313723572 4.095926183774418 1.6916095926801014 Q 4.0431383666978755 1.6868107002185975 4.004747227005845 1.6868107002185975 Q 3.966356087313814 1.6868107002185975 3.9135682702372723 1.6916095926801014 Q 3.8751771305452416 1.6988079313723572 3.81039208231494 1.6988079313723572 Q 3.7624031576999015 1.6988079313723572 3.7624031576999015 1.67721291529559 M 4.355042944603527 1.672414022834086 Q 4.355042944603527 1.6580173454495746 4.3682398988726625 1.6508190067573187 Q 4.381436853141798 1.6436206680650631 4.410230207910821 1.6340228831420553 Q 4.463018024987363 1.617226759526792 4.488212210410259 1.6016303590269045 Q 4.513406395833154 1.5860339585270171 4.513406395833154 1.5428439263734826 L 4.513406395833154 1.0269629867618204 Q 4.513406395833154 0.9501807073777591 4.495410549102514 0.9069906752242246 Q 4.477414702371875 0.8638006430706902 4.422227439064581 0.8542028581476825 Q 4.4006324229878135 0.8494039656861786 4.4006324229878135 0.8230100571479075 Q 4.4006324229878135 0.7990155948403883 4.419827992833829 0.7942167023788845 Q 4.484613041064131 0.7774205787636211 4.523004180756161 0.7594247320329818 Q 4.561395320448192 0.7414288853023424 4.611783691293982 0.7054371918410636 L 4.664571508370525 0.6694454983797848 Q 4.666970954601276 0.6694454983797848 4.672969570178156 0.664646605918281 Q 4.678968185755036 0.6598477134567773 4.686166524447292 0.6598477134567773 Q 4.690965416908796 0.6598477134567773 4.6957643093703 0.664646605918281 Q 4.7005632018318035 0.6694454983797848 4.7005632018318035 0.6766438370720407 L 4.6957643093703 0.7270322079178309 Q 4.693364863139547 0.7462277777638462 4.690965416908796 0.7738214094174932 Q 4.688565970678043 0.8014150410711403 4.688565970678043 0.8302083958401633 Q 4.688565970678043 0.8542028581476825 4.693364863139547 0.8590017506091863 L 4.698163755601051 0.8590017506091863 Q 4.863725545522934 0.6982388531488078 5.07247736759835 0.6982388531488078 Q 5.161256878136172 0.6982388531488078 5.218843587674217 0.7366299928408385 Q 5.276430297212263 0.7750211325328692 5.312421990673542 0.8638006430706902 L 5.319620329365797 0.8638006430706902 Q 5.506777135364447 0.6982388531488078 5.71073006497836 0.6982388531488078 Q 5.821104591592948 0.6982388531488078 5.88588963982325 0.7978158717250124 Q 5.950674688053552 0.8973928903012169 5.950674688053552 1.0317618792233243 L 5.950674688053552 1.5428439263734826 Q 5.950674688053552 1.5860339585270171 5.975868873476447 1.6016303590269045 Q 6.0010630588993426 1.617226759526792 6.0538508759758844 1.6340228831420553 Q 6.082644230744908 1.6436206680650631 6.095841185014043 1.6508190067573187 Q 6.109038139283179 1.6580173454495746 6.109038139283179 1.672414022834086 Q 6.109038139283179 1.6868107002185975 6.098240631244795 1.6928093157954773 Q 6.087443123206411 1.6988079313723572 6.06104921466814 1.6988079313723572 Q 5.996264166437838 1.6988079313723572 5.960272472976559 1.6916095926801014 Q 5.912283548361521 1.6868107002185975 5.871492962438738 1.6868107002185975 Q 5.828302930285204 1.6868107002185975 5.780314005670165 1.6916095926801014 Q 5.737123973516631 1.6988079313723572 5.672338925286329 1.6988079313723572 Q 5.624350000671291 1.6988079313723572 5.624350000671291 1.672414022834086 Q 5.624350000671291 1.6556178992188226 5.637546954940427 1.6484195605265668 Q 5.650743909209562 1.6412212218343112 5.6795372639785855 1.6340228831420553 Q 5.729925634824376 1.6220256519882958 5.756319543362647 1.6040298052576565 Q 5.782713451900918 1.5860339585270171 5.782713451900918 1.5428439263734826 L 5.782713451900918 1.0389602179155801 Q 5.782713451900918 0.9501807073777591 5.725126742362871 0.8805967666859535 Q 5.667540032824826 0.8110128259941479 5.590757753440764 0.8110128259941479 Q 5.463587103210912 0.8110128259941479 5.382005931365348 0.8757978742244497 Q 5.314821436904294 0.9285856913009919 5.314821436904294 1.0485580028385877 L 5.314821436904294 1.5428439263734826 Q 5.314821436904294 1.5860339585270171 5.343614791673317 1.6040298052576565 Q 5.37240814644234 1.6220256519882958 5.4227965172881305 1.6340228831420553 Q 5.477983780595425 1.6460201142958149 5.477983780595425 1.672414022834086 Q 5.477983780595425 1.6988079313723572 5.429994855980386 1.6988079313723572 Q 5.365209807750084 1.6988079313723572 5.324419221827302 1.6916095926801014 Q 5.271631404750759 1.6868107002185975 5.233240265058729 1.6868107002185975 Q 5.190050232905194 1.6868107002185975 5.142061308290156 1.6916095926801014 Q 5.098871276136621 1.6988079313723572 5.03408622790632 1.6988079313723572 Q 4.986097303291281 1.6988079313723572 4.986097303291281 1.672414022834086 Q 4.986097303291281 1.6580173454495746 4.996894811329665 1.6520187298726947 Q 5.007692319368049 1.6460201142958149 5.020889273637184 1.6412212218343112 Q 5.03408622790632 1.6364223293728073 5.041284566598575 1.6340228831420553 Q 5.0964718299058696 1.617226759526792 5.121666015328764 1.6016303590269045 Q 5.14686020075166 1.5860339585270171 5.14686020075166 1.5428439263734826 L 5.14686020075166 1.0389602179155801 Q 5.14686020075166 0.9501807073777591 5.089273491213614 0.8805967666859535 Q 5.0316867816755675 0.8110128259941479 4.954904502291506 0.8110128259941479 Q 4.827733852061655 0.8110128259941479 4.74615268021609 0.8757978742244497 Q 4.681367631985788 0.923786798839488 4.681367631985788 1.0485580028385877 L 4.681367631985788 1.5428439263734826 Q 4.681367631985788 1.5860339585270171 4.706561817408683 1.6016303590269045 Q 4.731756002831578 1.617226759526792 4.78454381990812 1.6340228831420553 Q 4.791742158600376 1.6364223293728073 4.8073385591002635 1.6412212218343112 Q 4.8229349596001505 1.6460201142958149 4.831333021407783 1.6532184529880707 Q 4.839731083215415 1.6604167916803265 4.839731083215415 1.672414022834086 Q 4.839731083215415 1.6988079313723572 4.791742158600376 1.6988079313723572 Q 4.729356556600826 1.6988079313723572 4.688565970678043 1.6916095926801014 Q 4.6357781536015015 1.6868107002185975 4.597387013909471 1.6868107002185975 Q 4.55899587421744 1.6868107002185975 4.506208057140898 1.6916095926801014 Q 4.467816917448867 1.6988079313723572 4.403031869218566 1.6988079313723572 Q 4.355042944603527 1.6988079313723572 4.355042944603527 1.672414022834086 M 6.3634157594856315 1.6928093157954773 Q 6.317826281101345 1.6604167916803265 6.287833203216946 1.611228143949912 Q 6.257840125332547 1.562039496219498 6.257840125332547 1.5188494640659633 Q 6.257840125332547 1.444466630912654 6.297430988139954 1.4012765987591194 Q 6.337021850947361 1.358086566605585 6.428200807715934 1.3196954269135543 L 6.672944323252628 1.2189186852219738 Q 6.718533801636915 1.1997231153759584 6.728131586559923 1.185326437991447 Q 6.7377293714829305 1.1709297606069353 6.740128817713682 1.122940835991897 L 6.744927710175186 0.9693762772237744 Q 6.747327156405938 0.9045912289934727 6.708936016713907 0.8602014737245622 Q 6.670544877021877 0.8158117184556518 6.603360382560823 0.8158117184556518 Q 6.567368689099545 0.8158117184556518 6.531376995638266 0.8278089496094113 Q 6.495385302176987 0.8398061807631709 6.471390839869468 0.8590017506091863 Q 6.447396377561948 0.8757978742244497 6.447396377561948 0.9285856913009919 L 6.449795823792701 0.9717757234545263 Q 6.449795823792701 0.9909712933005417 6.388609944908526 1.0233638174156927 Q 6.327424066024353 1.0557563415308433 6.291432372563074 1.0557563415308433 Q 6.279435141409315 1.0557563415308433 6.2722368027170585 1.0497577259539637 Q 6.265038464024803 1.043759110377084 6.265038464024803 1.0341613254540762 Q 6.265038464024803 0.9957701857620456 6.290232649447698 0.951380430493135 Q 6.3154268348705935 0.9069906752242246 6.361016313254879 0.8685995355321939 Q 6.442597485100444 0.7942167023788845 6.544573949907401 0.7462277777638462 Q 6.6465504147143575 0.6982388531488078 6.718533801636915 0.6982388531488078 Q 6.804913865943984 0.6982388531488078 6.8613008523666545 0.7594247320329818 Q 6.917687838789324 0.8206106109171556 6.915288392558573 0.9117895676857285 L 6.9032911614048125 1.4876566630661885 Q 6.900891715174061 1.5380450339119787 6.92488617748158 1.5692378349117537 Q 6.948880639789099 1.6004306359115286 6.989671225711882 1.6004306359115286 Q 7.04965738148068 1.6004306359115286 7.078450736249703 1.5740367273732574 Q 7.090447967403462 1.562039496219498 7.097646306095718 1.562039496219498 Q 7.109643537249477 1.562039496219498 7.116841875941733 1.5692378349117537 Q 7.124040214633989 1.5764361736040093 7.124040214633989 1.5884334047577688 Q 7.124040214633989 1.5980311896807766 7.116841875941733 1.613627590180664 Q 7.109643537249477 1.6292239906805515 7.097646306095718 1.6412212218343112 Q 7.0592551664036876 1.6796123615263419 7.014865411134776 1.702407100718485 Q 6.970475655865866 1.7252018399106281 6.932084516173836 1.7252018399106281 Q 6.821709989559247 1.7252018399106281 6.756924941328946 1.6004306359115286 L 6.74972660263669 1.6004306359115286 Q 6.670544877021877 1.6652156841418302 6.5985614900993195 1.6952087620262293 Q 6.526578103176762 1.7252018399106281 6.449795823792701 1.7252018399106281 Q 6.409005237869918 1.7252018399106281 6.3634157594856315 1.6928093157954773 M 6.704137124252403 1.5524417112964901 Q 6.718533801636915 1.5380450339119787 6.725732140329171 1.5164500178352114 Q 6.732930479021427 1.494855001758444 6.735329925252179 1.4540644158356617 L 6.740128817713682 1.3364915505288177 L 6.740128817713682 1.322094873144306 Q 6.740128817713682 1.302899303298291 6.735329925252179 1.2945012414906591 Q 6.730531032790675 1.2861031796830273 6.718533801636915 1.2861031796830273 Q 6.704137124252403 1.2861031796830273 6.670544877021877 1.298100410836787 Q 6.550572565484281 1.3412904429903216 6.497784748407739 1.3892793676053599 Q 6.444996931331197 1.437268292220398 6.444996931331197 1.4828577706046846 Q 6.444996931331197 1.5428439263734826 6.479788901677099 1.5764361736040093 Q 6.514580872023002 1.6100284208345361 6.562569796638041 1.6100284208345361 Q 6.6465504147143575 1.6100284208345361 6.704137124252403 1.5524417112964901 M 7.200790860693719 1.672414022834086 Q 7.200790860693719 1.6556178992188226 7.212788091847479 1.6496192836419428 Q 7.224785323001238 1.6436206680650631 7.255978124001013 1.6340228831420553 Q 7.347157080769586 1.612427867065288 7.347157080769586 1.5428439263734826 L 7.347157080769586 1.0269629867618204 Q 7.347157080769586 0.954979599839263 7.325562064692819 0.9105898445703525 Q 7.303967048616052 0.866200089301442 7.248779785308757 0.8542028581476825 Q 7.23918200038575 0.8518034119169305 7.231983661693494 0.8422056269939229 Q 7.224785323001238 0.8326078420709152 7.224785323001238 0.8230100571479075 Q 7.224785323001238 0.8134122722248999 7.231983661693494 0.8050142104172682 Q 7.23918200038575 0.7966161486096365 7.246380339078005 0.7942167023788845 Q 7.342358188308082 0.7630239013791096 7.483925515922445 0.6766438370720407 Q 7.510319424460716 0.6598477134567773 7.519917209383724 0.6598477134567773 Q 7.531914440537483 0.6598477134567773 7.531914440537483 0.6766438370720407 Q 7.531914440537483 0.7414288853023424 7.524716101845228 0.8566023043784343 Q 7.524716101845228 0.8614011968399382 7.529514994306732 0.8614011968399382 Q 7.589501150075529 0.7894178099173806 7.663883983228839 0.7438283315330942 Q 7.738266816382149 0.6982388531488078 7.805451310843202 0.6982388531488078 Q 7.855839681688992 0.6982388531488078 7.888232205804143 0.7198338692255751 Q 7.920624729919294 0.7414288853023424 7.920624729919294 0.7750211325328692 Q 7.920624729919294 0.8134122722248999 7.890631652034895 0.8566023043784343 Q 7.860638574150496 0.8997923365319689 7.8270463269199695 0.8997923365319689 Q 7.80305186461245 0.8997923365319689 7.759861832458916 0.8781973204552016 Q 7.75266349376666 0.8757978742244497 7.727469308343765 0.866200089301442 Q 7.70227512292087 0.8566023043784343 7.683079553074855 0.8566023043784343 Q 7.613495612383049 0.8566023043784343 7.565506687768011 0.9021917827627208 Q 7.517517763152972 0.9477812611470072 7.517517763152972 1.0581557877615952 L 7.517517763152972 1.5428439263734826 Q 7.517517763152972 1.5740367273732574 7.548710564152747 1.5944320203346487 Q 7.579903365152522 1.61482731329604 7.6446884133828235 1.6340228831420553 Q 7.673481768151847 1.6436206680650631 7.686678722420982 1.6508190067573187 Q 7.699875676690118 1.6580173454495746 7.699875676690118 1.672414022834086 Q 7.699875676690118 1.6988079313723572 7.65188675207508 1.6988079313723572 Q 7.587101703844778 1.6988079313723572 7.53911277922974 1.6916095926801014 Q 7.481526069691693 1.6868107002185975 7.443134929999663 1.6868107002185975 Q 7.404743790307632 1.6868107002185975 7.35195597323109 1.6916095926801014 Q 7.3135648335390595 1.6988079313723572 7.248779785308757 1.6988079313723572 Q 7.200790860693719 1.6988079313723572 7.200790860693719 1.672414022834086 M 8.206121340031416 1.6520187298726947 Q 8.141336291801114 1.5788356198347613 8.141336291801114 1.43966773845115 L 8.141336291801114 0.8829962129167055 Q 8.141336291801114 0.8614011968399382 8.125739891301228 0.8542028581476825 Q 8.11014349080134 0.8470045194554267 8.064554012417053 0.8470045194554267 L 8.050157335032543 0.8470045194554267 Q 8.038160103878782 0.8470045194554267 8.02976204207115 0.8326078420709152 Q 8.02136398026352 0.8182111646864036 8.02136398026352 0.7990155948403883 Q 8.02136398026352 0.7942167023788845 8.0273625958404 0.7858186405712528 Q 8.033361211417278 0.7774205787636211 8.038160103878782 0.7726216863021172 Q 8.167730200339385 0.6814427295335443 8.251710818415702 0.580665987841964 Q 8.26130860333871 0.5686687566882043 8.270906388261718 0.5602706948805727 Q 8.280504173184726 0.5518726330729409 8.292501404338486 0.5518726330729409 Q 8.326093651569012 0.5518726330729409 8.32369420533826 0.578266541611212 L 8.311696974184501 0.6862416219950482 L 8.311696974184501 0.6958394069180559 Q 8.311696974184501 0.7174344229948232 8.326093651569012 0.7246327616870789 Q 8.340490328953523 0.7318311003793347 8.369283683722546 0.7318311003793347 L 8.642820554028265 0.7318311003793347 Q 8.652418338951273 0.7318311003793347 8.659616677643529 0.7474275008792222 Q 8.666815016335784 0.7630239013791096 8.666815016335784 0.7846189174558769 Q 8.666815016335784 0.8062139335326441 8.659616677643529 0.8266092264940355 Q 8.652418338951273 0.8470045194554267 8.642820554028265 0.8470045194554267 L 8.405275377183825 0.8470045194554267 Q 8.340490328953523 0.8470045194554267 8.324893928453637 0.8566023043784343 Q 8.309297527953749 0.866200089301442 8.309297527953749 0.9141890139164803 L 8.309297527953749 1.386879921374608 Q 8.309297527953749 1.4852572168354365 8.35008811387653 1.5392447570273546 Q 8.390878699799314 1.5932322972192727 8.467660979183375 1.5932322972192727 Q 8.53484547364443 1.5932322972192727 8.574436336451836 1.5836345122962652 Q 8.614027199259242 1.5740367273732574 8.645220000259018 1.5500422650657382 L 8.654817785182026 1.5452433726042345 Q 8.671613908797289 1.5452433726042345 8.671613908797289 1.5788356198347613 Q 8.671613908797289 1.5932322972192727 8.628423876643753 1.6304237137959274 Q 8.585233844490219 1.6676151303725821 8.521648519375294 1.6964084851416052 Q 8.458063194260367 1.7252018399106281 8.390878699799314 1.7252018399106281 Q 8.270906388261718 1.7252018399106281 8.206121340031416 1.6520187298726947" fill="#d81e5b" fill-rule="nonzero"></path></g><g></g></g><defs><clipPath id="SvgjsClipPath31259"><path d=" M -2.871743281870298 -0.11500860558008652 h 2.4717432818702982 v 1.9216268038402744 h -2.4717432818702982 Z"></path></clipPath><clipPath id="SvgjsClipPath312540d8dd099-5523-4d97-8b30-730c6f965edf"><path d=" M -2.871743281870298 -0.11500860558008641 L -0.3999999999999999 -0.11500860558008641 L -0.3999999999999999 1.8066181982601879 L -2.871743281870298 1.8066181982601879 Z"></path></clipPath></defs></svg>